<svg width="16" height="16" viewBox="0 0 16 16" fill="none" xmlns="http://www.w3.org/2000/svg">
<path d="M15 8C15 4.13401 11.866 1 8 1C4.13401 1 1 4.13401 1 8C1 11.866 4.13401 15 8 15C11.866 15 15 11.866 15 8Z" fill="white"/>
<path d="M15 8C15 4.13401 11.866 1 8 1C4.13401 1 1 4.13401 1 8C1 11.866 4.13401 15 8 15C11.866 15 15 11.866 15 8Z" fill="#D8D8D8"/>
<path d="M8 15C11.866 15 15 11.866 15 8C15 4.13401 11.866 1 8 1C4.13401 1 1 4.13401 1 8C1 11.866 4.13401 15 8 15Z" fill="#6DAE4F"/>
<path d="M8 1C9.85652 1 11.637 1.7375 12.9497 3.05025C14.2625 4.36301 15 6.14348 15 8C15 9.85652 14.2625 11.637 12.9497 12.9497C11.637 14.2625 9.85652 15 8 15C6.14348 15 4.36301 14.2625 3.05025 12.9497C1.7375 11.637 1 9.85652 1 8C1 6.14348 1.7375 4.36301 3.05025 3.05025C4.36301 1.7375 6.14348 1 8 1ZM8 0C5.87827 0 3.84344 0.842855 2.34315 2.34315C0.842855 3.84344 0 5.87827 0 8C0 10.1217 0.842855 12.1566 2.34315 13.6569C3.84344 15.1571 5.87827 16 8 16C10.1217 16 12.1566 15.1571 13.6569 13.6569C15.1571 12.1566 16 10.1217 16 8C16 5.87827 15.1571 3.84344 13.6569 2.34315C12.1566 0.842855 10.1217 0 8 0V0Z" fill="white"/>
<path d="M12.133 9.22397C12.1149 8.43824 11.9938 7.65827 11.773 6.90397C11.1677 6.41747 10.7077 5.77407 10.443 5.04397C10.283 4.51397 10.173 4.32397 9.70305 4.31397C9.60739 4.32267 9.51444 4.35042 9.42967 4.39559C9.34489 4.44076 9.27002 4.50244 9.20945 4.57699C9.14888 4.65154 9.10384 4.73745 9.07698 4.82967C9.05011 4.9219 9.04198 5.01856 9.05305 5.11397C9.05905 5.35397 9.07905 5.59497 9.11305 5.83397C9.25005 6.48897 9.44305 7.13197 9.69305 7.75397L5.19305 4.33397C5.11798 4.26086 5.02843 4.20428 4.93017 4.16789C4.8319 4.1315 4.7271 4.11611 4.62252 4.1227C4.51794 4.1293 4.4159 4.15774 4.32298 4.20618C4.23006 4.25463 4.14833 4.32201 4.08305 4.40397C4.03342 4.48693 4.00101 4.57902 3.98774 4.67477C3.97448 4.77052 3.98062 4.86795 4.00582 4.96127C4.03102 5.0546 4.07475 5.14189 4.1344 5.21794C4.19406 5.294 4.26842 5.35727 4.35305 5.40397L6.60305 7.10397L7.19305 7.66397L3.62305 4.95397C3.55148 4.8818 3.46526 4.82584 3.3702 4.78987C3.27515 4.75389 3.17348 4.73874 3.07207 4.74544C2.97065 4.75215 2.87186 4.78054 2.78237 4.82872C2.69287 4.87689 2.61476 4.94371 2.55332 5.02467C2.49188 5.10563 2.44853 5.19884 2.42622 5.298C2.4039 5.39715 2.40313 5.49994 2.42396 5.59942C2.44479 5.69889 2.48674 5.79274 2.54696 5.87461C2.60718 5.95648 2.68428 6.02447 2.77305 6.07397L5.02305 7.77397L6.37305 8.77397L3.45305 6.58397C3.37798 6.51086 3.28843 6.45428 3.19017 6.41789C3.0919 6.3815 2.9871 6.36611 2.88252 6.3727C2.77794 6.3793 2.6759 6.40774 2.58298 6.45618C2.49006 6.50463 2.40833 6.57201 2.34305 6.65397C2.03305 7.05397 2.28305 7.46397 2.60305 7.71397L4.85305 9.40397L5.98305 10.254L3.73305 8.55397C3.66373 8.47851 3.5795 8.41826 3.48568 8.37704C3.39187 8.33583 3.29052 8.31455 3.18805 8.31455C3.08558 8.31455 2.98423 8.33583 2.89041 8.37704C2.79659 8.41826 2.71236 8.47851 2.64305 8.55397C2.58167 8.63951 2.53899 8.73701 2.51778 8.84013C2.49657 8.94325 2.4973 9.04968 2.51994 9.1525C2.54258 9.25532 2.58661 9.35222 2.64917 9.43689C2.71173 9.52157 2.79142 9.59213 2.88305 9.64397L6.98305 12.644C7.57705 13.091 9.05305 13.477 9.70305 12.912" stroke="#165209" stroke-width="1.5" stroke-linecap="round" stroke-linejoin="round"/>
<path fill-rule="evenodd" clip-rule="evenodd" d="M12.613 9.90399L12.193 9.53399C12.1383 8.798 11.9661 8.07551 11.683 7.39399C11.0975 6.70721 10.6829 5.89166 10.473 5.01399C10.313 4.48399 10.203 4.29399 9.73295 4.28399C9.6373 4.29269 9.54434 4.32044 9.45957 4.36561C9.3748 4.41078 9.29993 4.47245 9.23936 4.547C9.17879 4.62155 9.13375 4.70747 9.10688 4.79969C9.08002 4.89191 9.07189 4.98857 9.08296 5.08399C9.08896 5.32399 9.10895 5.56499 9.14295 5.80399C9.25795 6.43499 9.44296 7.05199 9.69296 7.64399L9.50296 7.53399L5.19296 4.22399C5.11789 4.15087 5.02834 4.09429 4.93007 4.0579C4.83181 4.02152 4.72701 4.00612 4.62242 4.01272C4.51784 4.01931 4.41581 4.04775 4.32289 4.0962C4.22997 4.14464 4.14824 4.21202 4.08296 4.29399C4.02478 4.3795 3.98543 4.47639 3.96752 4.57825C3.94962 4.68011 3.95356 4.78461 3.97909 4.88483C4.00461 4.98506 4.05115 5.07871 4.1156 5.15959C4.18005 5.24047 4.26096 5.30673 4.35296 5.35399L6.55296 7.04399L7.19296 7.55399L3.62295 4.84399C3.54856 4.77029 3.45956 4.713 3.36168 4.67578C3.2638 4.63856 3.15922 4.62226 3.05465 4.62791C2.95009 4.63356 2.84787 4.66105 2.75457 4.7086C2.66128 4.75615 2.57897 4.8227 2.51296 4.90399C2.45595 4.98935 2.41733 5.08564 2.39955 5.18674C2.38177 5.28783 2.38522 5.39152 2.40967 5.49121C2.43412 5.5909 2.47905 5.68441 2.54159 5.76581C2.60413 5.8472 2.68292 5.91469 2.77296 5.96399L5.02295 7.66399L6.37296 8.66399L3.45296 6.48399C3.37934 6.40884 3.29055 6.35025 3.19251 6.31213C3.09447 6.274 2.98942 6.25722 2.88438 6.2629C2.77934 6.26858 2.67672 6.29659 2.58336 6.34506C2.48999 6.39353 2.40804 6.46134 2.34296 6.54399C2.28441 6.62887 2.24451 6.72519 2.22588 6.82661C2.20725 6.92803 2.21032 7.03224 2.23488 7.13238C2.25945 7.23253 2.30495 7.32633 2.36839 7.40762C2.43183 7.48891 2.51178 7.55583 2.60296 7.60399L4.85296 9.29399L5.98295 10.144L3.73296 8.45399C3.66536 8.3757 3.5817 8.31288 3.48765 8.26983C3.39361 8.22678 3.29139 8.20449 3.18796 8.20449C3.08452 8.20449 2.9823 8.22678 2.88826 8.26983C2.79421 8.31288 2.71055 8.3757 2.64295 8.45399C2.58174 8.53871 2.53917 8.63544 2.51805 8.73781C2.49692 8.84018 2.49773 8.94586 2.5204 9.04789C2.54307 9.14992 2.58711 9.246 2.6496 9.32978C2.71209 9.41357 2.79162 9.48316 2.88295 9.53399L6.98295 12.644C7.2771 12.8653 7.61312 13.0247 7.97065 13.1123C8.32818 13.2 8.69978 13.2142 9.06295 13.154C9.60096 13.466 10.071 13.466 10.473 13.154C11.075 12.685 10.877 12.643 11.323 12.024C11.8277 11.3656 12.2602 10.6549 12.613 9.90399Z" fill="#DCF0CB"/>
<path d="M12.133 9.22397C12.1149 8.43824 11.9938 7.65827 11.773 6.90397C11.1677 6.41747 10.7077 5.77407 10.443 5.04397C10.283 4.51397 10.173 4.32397 9.70305 4.31397C9.60739 4.32267 9.51444 4.35042 9.42967 4.39559C9.34489 4.44076 9.27002 4.50244 9.20945 4.57699C9.14888 4.65154 9.10384 4.73745 9.07698 4.82967C9.05011 4.9219 9.04198 5.01856 9.05305 5.11397C9.05905 5.35397 9.07905 5.59497 9.11305 5.83397C9.25005 6.48897 9.44305 7.13197 9.69305 7.75397L5.19305 4.33397C5.11798 4.26086 5.02843 4.20428 4.93017 4.16789C4.8319 4.1315 4.7271 4.11611 4.62252 4.1227C4.51794 4.1293 4.4159 4.15774 4.32298 4.20618C4.23006 4.25463 4.14833 4.32201 4.08305 4.40397C4.03342 4.48693 4.00101 4.57902 3.98774 4.67477C3.97448 4.77052 3.98062 4.86795 4.00582 4.96127C4.03102 5.0546 4.07475 5.14189 4.1344 5.21794C4.19406 5.294 4.26842 5.35727 4.35305 5.40397L6.60305 7.10397L7.19305 7.66397L3.62305 4.95397C3.55148 4.8818 3.46526 4.82584 3.3702 4.78987C3.27515 4.75389 3.17348 4.73874 3.07207 4.74544C2.97065 4.75215 2.87186 4.78054 2.78237 4.82872C2.69287 4.87689 2.61476 4.94371 2.55332 5.02467C2.49188 5.10563 2.44853 5.19884 2.42622 5.298C2.4039 5.39715 2.40313 5.49994 2.42396 5.59942C2.44479 5.69889 2.48674 5.79274 2.54696 5.87461C2.60718 5.95648 2.68428 6.02447 2.77305 6.07397L5.02305 7.77397L6.37305 8.77397L3.45305 6.58397C3.37798 6.51086 3.28843 6.45428 3.19017 6.41789C3.0919 6.3815 2.9871 6.36611 2.88252 6.3727C2.77794 6.3793 2.6759 6.40774 2.58298 6.45618C2.49006 6.50463 2.40833 6.57201 2.34305 6.65397C2.03305 7.05397 2.28305 7.46397 2.60305 7.71397L4.85305 9.40397L5.98305 10.254L3.73305 8.55397C3.66373 8.47851 3.5795 8.41826 3.48568 8.37704C3.39187 8.33583 3.29052 8.31455 3.18805 8.31455C3.08558 8.31455 2.98423 8.33583 2.89041 8.37704C2.79659 8.41826 2.71236 8.47851 2.64305 8.55397C2.58167 8.63951 2.53899 8.73701 2.51778 8.84013C2.49657 8.94325 2.4973 9.04968 2.51994 9.1525C2.54258 9.25532 2.58661 9.35222 2.64917 9.43689C2.71173 9.52157 2.79142 9.59213 2.88305 9.64397L6.98305 12.644C7.57705 13.091 8.96905 13.386 9.70305 13.264" stroke="#165209" stroke-width="0.5" stroke-linecap="round" stroke-linejoin="round"/>
<path fill-rule="evenodd" clip-rule="evenodd" d="M14.7669 11.388C14.5646 11.1715 14.4082 10.9164 14.3069 10.638C14.3069 10.418 14.2469 10.208 14.2069 9.988C14.1756 9.60425 14.0521 9.23374 13.8469 8.908C13.2673 8.21735 12.8534 7.40324 12.6369 6.528C12.4769 5.998 12.3669 5.808 11.8969 5.798C11.8012 5.80669 11.7083 5.83445 11.6235 5.87962C11.5387 5.92479 11.4639 5.98646 11.4033 6.06101C11.3427 6.13556 11.2977 6.22147 11.2708 6.3137C11.244 6.40592 11.2358 6.50258 11.2469 6.598C11.2539 6.838 11.2739 7.078 11.3069 7.318C11.4869 8.238 11.6769 8.998 11.6969 9.048L7.4069 5.838C7.3326 5.76342 7.24326 5.70554 7.14482 5.66825C7.04638 5.63095 6.94111 5.61508 6.83605 5.62171C6.73099 5.62833 6.62855 5.6573 6.53558 5.70667C6.4426 5.75604 6.36123 5.82467 6.2969 5.908C6.24687 5.99035 6.21389 6.0819 6.19989 6.17723C6.1859 6.27256 6.19118 6.36973 6.21543 6.46298C6.23967 6.55623 6.28239 6.64367 6.34104 6.72011C6.3997 6.79655 6.4731 6.86044 6.5569 6.908L8.8069 8.608L9.4869 9.168L5.8869 6.458C5.81328 6.38285 5.7245 6.32426 5.62645 6.28614C5.52841 6.24801 5.42337 6.23123 5.31832 6.23691C5.21328 6.24258 5.11066 6.27059 5.0173 6.31906C4.92394 6.36753 4.84198 6.43535 4.7769 6.518C4.71835 6.60288 4.67845 6.6992 4.65982 6.80061C4.64119 6.90203 4.64426 7.00625 4.66882 7.10639C4.69339 7.20654 4.73889 7.30034 4.80233 7.38163C4.86577 7.46292 4.94572 7.52984 5.0369 7.578L7.2869 9.278L8.6369 10.278L5.7069 8.088C5.63204 8.01567 5.54277 7.95995 5.44492 7.92447C5.34707 7.88899 5.24283 7.87455 5.13901 7.8821C5.0352 7.88965 4.93415 7.91902 4.84246 7.96828C4.75076 8.01755 4.6705 8.0856 4.6069 8.168C4.2969 8.568 4.5369 8.978 4.8669 9.228L7.1169 10.908L8.2369 11.758L5.9469 10.058C5.80649 9.93601 5.62481 9.87223 5.43896 9.87966C5.25312 9.8871 5.07711 9.96519 4.9469 10.098C4.88568 10.1799 4.84212 10.2737 4.81895 10.3733C4.79579 10.4729 4.79354 10.5763 4.81233 10.6768C4.83113 10.7774 4.87056 10.8729 4.92814 10.9575C4.98573 11.042 5.06021 11.1137 5.1469 11.168L9.1469 14.168C9.4809 14.418 9.8669 14.589 10.2769 14.668L10.8569 14.758C11.1619 14.803 11.4569 14.901 11.7269 15.048C11.9136 15.1392 12.1277 15.157 12.3269 15.098C13.0302 14.85 13.6455 14.4015 14.0969 13.808C14.5197 13.2236 14.763 12.5285 14.7969 11.808C14.8223 11.6677 14.812 11.5233 14.7669 11.388Z" stroke="#165209" stroke-width="1.5" stroke-linecap="round" stroke-linejoin="round"/>
<path fill-rule="evenodd" clip-rule="evenodd" d="M14.807 11.338L14.357 10.998C14.3072 10.2613 14.1348 9.53803 13.847 8.85801C13.2656 8.16856 12.8515 7.35401 12.637 6.47801C12.477 5.94801 12.367 5.75801 11.897 5.74801C11.8013 5.75671 11.7084 5.78446 11.6236 5.82963C11.5388 5.8748 11.464 5.93648 11.4034 6.01103C11.3428 6.08558 11.2978 6.17149 11.2709 6.26371C11.2441 6.35594 11.2359 6.4526 11.247 6.54801C11.254 6.78801 11.274 7.02801 11.307 7.26801C11.487 8.19801 11.677 8.95801 11.697 8.99801L7.40699 5.78801C7.33192 5.7149 7.24237 5.65832 7.1441 5.62193C7.04584 5.58554 6.94104 5.57015 6.83645 5.57674C6.73187 5.58334 6.62984 5.61178 6.53692 5.66022C6.444 5.70867 6.36227 5.77605 6.29699 5.85801C5.98699 6.26801 6.23699 6.66801 6.55699 6.91801L8.80699 8.60801L9.48699 9.16801L5.88699 6.40801C5.81192 6.3349 5.72237 6.27832 5.6241 6.24193C5.52584 6.20554 5.42104 6.19015 5.31645 6.19674C5.21187 6.20334 5.10984 6.23178 5.01692 6.28022C4.924 6.32867 4.84227 6.39605 4.77699 6.47801C4.46699 6.87801 4.71699 7.28801 5.03699 7.53801L7.28699 9.22801L8.63699 10.228L5.70699 8.03801C5.6328 7.96512 5.54409 7.90869 5.44662 7.87239C5.34916 7.83609 5.24514 7.82074 5.14135 7.82735C5.03756 7.83395 4.93633 7.86236 4.84425 7.91072C4.75218 7.95908 4.67133 8.02631 4.60699 8.10801C4.54681 8.19237 4.50556 8.28872 4.48604 8.39048C4.46652 8.49224 4.46919 8.59701 4.49387 8.69765C4.51856 8.79828 4.56467 8.8924 4.62906 8.97358C4.69346 9.05475 4.77461 9.12108 4.86699 9.16801L7.11699 10.858L8.23699 11.708L5.94699 10.018C5.8088 9.89129 5.62609 9.82437 5.43874 9.83187C5.25139 9.83936 5.07461 9.92066 4.94699 10.058C4.87714 10.1402 4.82636 10.2368 4.79831 10.3409C4.77026 10.4451 4.76563 10.5541 4.78475 10.6603C4.80388 10.7664 4.84628 10.867 4.90891 10.9548C4.97154 11.0426 5.05285 11.1154 5.14699 11.168L9.14699 14.168C9.75346 14.5297 10.4413 14.7326 11.147 14.758C11.403 14.9145 11.6704 15.0515 11.947 15.168C12.7493 15.0168 13.4642 14.5664 13.947 13.908C14.474 13.1515 14.7726 12.2594 14.807 11.338Z" fill="#DDF6D1"/>
<path fill-rule="evenodd" clip-rule="evenodd" d="M14.7669 11.388C14.5646 11.1715 14.4082 10.9164 14.3069 10.638C14.3069 10.418 14.2469 10.208 14.2069 9.988C14.1756 9.60425 14.0521 9.23374 13.8469 8.908C13.2673 8.21735 12.8534 7.40324 12.6369 6.528C12.4769 5.998 12.3669 5.808 11.8969 5.798C11.8012 5.80669 11.7083 5.83445 11.6235 5.87962C11.5387 5.92479 11.4639 5.98646 11.4033 6.06101C11.3427 6.13556 11.2977 6.22147 11.2708 6.3137C11.244 6.40592 11.2358 6.50258 11.2469 6.598C11.2539 6.838 11.2739 7.078 11.3069 7.318C11.4869 8.238 11.6769 8.998 11.6969 9.048L7.4069 5.838C7.3326 5.76342 7.24326 5.70554 7.14482 5.66825C7.04638 5.63095 6.94111 5.61508 6.83605 5.62171C6.73099 5.62833 6.62855 5.6573 6.53558 5.70667C6.4426 5.75604 6.36123 5.82467 6.2969 5.908C6.24687 5.99035 6.21389 6.0819 6.19989 6.17723C6.1859 6.27256 6.19118 6.36973 6.21543 6.46298C6.23967 6.55623 6.28239 6.64367 6.34104 6.72011C6.3997 6.79655 6.4731 6.86044 6.5569 6.908L8.8069 8.608L9.4869 9.168L5.8869 6.458C5.81328 6.38285 5.7245 6.32426 5.62645 6.28614C5.52841 6.24801 5.42337 6.23123 5.31832 6.23691C5.21328 6.24258 5.11066 6.27059 5.0173 6.31906C4.92394 6.36753 4.84198 6.43535 4.7769 6.518C4.71835 6.60288 4.67845 6.6992 4.65982 6.80061C4.64119 6.90203 4.64426 7.00625 4.66882 7.10639C4.69339 7.20654 4.73889 7.30034 4.80233 7.38163C4.86577 7.46292 4.94572 7.52984 5.0369 7.578L7.2869 9.278L8.6369 10.278L5.7069 8.088C5.63204 8.01567 5.54277 7.95995 5.44492 7.92447C5.34707 7.88899 5.24283 7.87455 5.13901 7.8821C5.0352 7.88965 4.93415 7.91902 4.84246 7.96828C4.75076 8.01755 4.6705 8.0856 4.6069 8.168C4.2969 8.568 4.5369 8.978 4.8669 9.228L7.1169 10.908L8.2369 11.758L5.9469 10.058C5.80649 9.93601 5.62481 9.87223 5.43896 9.87966C5.25312 9.8871 5.07711 9.96519 4.9469 10.098C4.88568 10.1799 4.84212 10.2737 4.81895 10.3733C4.79579 10.4729 4.79354 10.5763 4.81233 10.6768C4.83113 10.7774 4.87056 10.8729 4.92814 10.9575C4.98573 11.042 5.06021 11.1137 5.1469 11.168L9.1469 14.168C9.4809 14.418 9.8669 14.589 10.2769 14.668L10.8569 14.758C11.1619 14.803 11.4569 14.901 11.7269 15.048C11.9136 15.1392 12.1277 15.157 12.3269 15.098C13.0302 14.85 13.6455 14.4015 14.0969 13.808C14.5197 13.2236 14.763 12.5285 14.7969 11.808C14.8223 11.6677 14.812 11.5233 14.7669 11.388Z" stroke="#165209" stroke-width="0.5" stroke-linecap="round" stroke-linejoin="round"/>
<path d="M7.5379 1.633L6.8889 3.193M8.8289 2.818L8.0989 3.738L8.8289 2.818ZM5.4939 1.625L5.5589 2.818L5.4939 1.625Z" stroke="#165209" stroke-linecap="round" stroke-linejoin="round"/>
</svg>
