<svg width="16" height="16" viewBox="0 0 16 16" fill="none" xmlns="http://www.w3.org/2000/svg">
<path d="M8 15C11.866 15 15 11.866 15 8C15 4.13401 11.866 1 8 1C4.13401 1 1 4.13401 1 8C1 11.866 4.13401 15 8 15Z" fill="#1485BD"/>
<path fill-rule="evenodd" clip-rule="evenodd" d="M11.9301 7.25H11.3801C11.3301 7.25 11.2301 7.06 10.9801 6.79C10.6101 6.39 10.2001 5.88 9.91013 5.6C9.19056 4.97551 8.60247 4.21405 8.18013 3.36C7.94013 2.85 7.92013 2.62 7.43013 2.62C7.23661 2.64498 7.05978 2.74252 6.93541 2.89288C6.81104 3.04324 6.74839 3.23521 6.76013 3.43C6.76013 3.57 6.83013 4.06 6.86013 4.23C7.07432 5.01185 7.4119 5.75452 7.86013 6.43H8.40013H4.12013C3.99891 6.42821 3.87865 6.45178 3.76707 6.49919C3.65548 6.5466 3.55504 6.61682 3.47219 6.70532C3.38933 6.79383 3.32589 6.89867 3.28592 7.01314C3.24596 7.1276 3.23037 7.24915 3.24013 7.37C3.25555 7.60429 3.36093 7.82356 3.53424 7.98197C3.70756 8.14038 3.9354 8.22566 4.17013 8.22H4.33013C4.22769 8.22259 4.12677 8.24534 4.03312 8.28695C3.93948 8.32857 3.85495 8.38823 3.78437 8.46252C3.71379 8.53681 3.65854 8.62429 3.62178 8.71994C3.58502 8.8156 3.56747 8.91756 3.57013 9.02C3.57187 9.2215 3.64865 9.41512 3.78548 9.56305C3.92232 9.71098 4.10938 9.80259 4.31013 9.81999C4.18793 9.91349 4.09528 10.0402 4.04329 10.185C3.9913 10.3299 3.98217 10.4866 4.017 10.6365C4.05183 10.7863 4.12914 10.923 4.23966 11.03C4.35018 11.1371 4.48923 11.21 4.64013 11.24C4.54431 11.4063 4.51232 11.6018 4.55013 11.79C4.60134 11.9747 4.71279 12.137 4.86679 12.2512C5.02079 12.3653 5.20851 12.4247 5.40013 12.42H7.69013C7.99013 12.42 8.28913 12.382 8.58013 12.31L10.0001 11.89H11.9001C12.9201 11.85 13.1901 7.25 11.9301 7.25Z" fill="#E6F7FF"/>
<path d="M7.4299 6.42998H4.10991C3.98351 6.4288 3.85835 6.45486 3.74293 6.50639C3.62752 6.55791 3.52455 6.6337 3.44105 6.72859C3.35755 6.82348 3.29547 6.93524 3.25903 7.05627C3.2226 7.1773 3.21266 7.30476 3.22991 7.42998C3.24777 7.66249 3.35422 7.87927 3.52727 8.03557C3.70033 8.19188 3.92678 8.27579 4.15991 8.26998H4.31991C4.21746 8.27257 4.11654 8.29532 4.02289 8.33694C3.92925 8.37855 3.84472 8.43821 3.77414 8.5125C3.70356 8.5868 3.64832 8.67427 3.61156 8.76992C3.5748 8.86558 3.55724 8.96754 3.55991 9.06998C3.56358 9.27191 3.64077 9.46557 3.77699 9.61468C3.91321 9.76379 4.09913 9.85811 4.29991 9.87998C4.20428 9.955 4.12676 10.0506 4.07309 10.1596C4.01943 10.2687 3.991 10.3884 3.98991 10.51C3.99041 10.6976 4.0552 10.8793 4.17349 11.0249C4.29178 11.1705 4.4564 11.2711 4.63991 11.31C4.54339 11.4797 4.51143 11.6786 4.54991 11.87C4.60297 12.0528 4.71521 12.2129 4.86904 12.3251C5.02286 12.4373 5.20958 12.4953 5.39991 12.49H7.68991C7.98991 12.49 8.28891 12.452 8.57991 12.38L9.99991 11.91H11.8999C12.8999 11.91 13.1699 7.26998 11.8999 7.26998C11.7167 7.28007 11.5331 7.28007 11.3499 7.26998C11.2999 7.26998 11.1999 7.07998 10.9499 6.80998C10.5799 6.40998 10.1699 5.89998 9.87991 5.61998C9.17008 4.98973 8.59227 4.22498 8.17991 3.36998C8.10048 3.18129 7.99256 3.00591 7.85991 2.84998C7.69335 2.70992 7.47846 2.64087 7.2615 2.6577C7.04453 2.67453 6.84286 2.7759 6.69991 2.93998C6.59627 3.05206 6.51181 3.18044 6.44991 3.31998C6.40945 3.41654 6.37928 3.51709 6.35991 3.61998C6.33308 3.90191 6.35678 4.18637 6.42991 4.45998C6.49391 4.74798 6.58491 5.02898 6.69991 5.29998C6.88791 5.65298 7.10991 5.98798 7.35991 6.29998C7.39076 6.31899 7.41516 6.34687 7.4299 6.37998" stroke="#004B7C" stroke-linecap="round" stroke-linejoin="round"/>
</svg>
