<svg width="20" height="17" viewBox="0 0 20 17" fill="none" xmlns="http://www.w3.org/2000/svg">
<path d="M19 4H15V3C15 2.20435 14.6839 1.44129 14.1213 0.87868C13.5587 0.316071 12.7956 0 12 0H8C7.20435 0 6.44129 0.316071 5.87868 0.87868C5.31607 1.44129 5 2.20435 5 3V4H1C0.734784 4 0.48043 4.10536 0.292893 4.29289C0.105357 4.48043 0 4.73478 0 5V16C0 16.2652 0.105357 16.5196 0.292893 16.7071C0.48043 16.8946 0.734784 17 1 17H19C19.2652 17 19.5196 16.8946 19.7071 16.7071C19.8946 16.5196 20 16.2652 20 16V5C20 4.73478 19.8946 4.48043 19.7071 4.29289C19.5196 4.10536 19.2652 4 19 4ZM7 3C7 2.73478 7.10536 2.48043 7.29289 2.29289C7.48043 2.10536 7.73478 2 8 2H12C12.2652 2 12.5196 2.10536 12.7071 2.29289C12.8946 2.48043 13 2.73478 13 3V4H7V3ZM18 15H2V10H18V15ZM18 9H2V6H18V9Z" fill="#C9D1D7"/>
</svg>
